<svg xmlns="http://www.w3.org/2000/svg" width="150" height="372">
 <style type="text/css">
<![CDATA[
svg {
  background:black;
}

.drip {
  transform-box:fill-box;
  transform-origin: center top;
  animation: drip 2.5s ease-in infinite;
}

#logotype {
  animation-fill-mode: both;
  transform-origin: center top;
  animation: swing 2s ease-in-out infinite alternate;
}

@keyframes swing {
   0% { transform: rotate(1.5deg); }
   100% { transform: rotate(-1.5deg); }
}

#drip-1 {
  animation-duration: 2s;
}

#drip-2 {
  animation-duration: 1.5s;
}

#drip-3 {
  animation-duration: 1.75s;
}

#hook .drip {
  animation-name: drip-long;
}

@keyframes drip {
  0% {
    transform: translateY(0) scale(0.1);
  }
  50% {
    transform: translateY(0) scale(1);
  }
  100% {
    transform: translateY(195px) scale(1);
  }
}

@keyframes drip-short {
  0% {
    transform: translateY(0) scale(0.1);
  }
  50% {
    transform: translateY(0) scale(1);
  }
  100% {
    transform: translateY(200px) scale(1);
  }
}

@keyframes drip-long {
  0% {
    transform: translateY(0) scale(0.1);
  }
  50% {
    transform: translateY(0) scale(1);
  }
  100% {
    transform: translateY(230px) scale(1);
  }
}

#splash-1 {
  transform-box:fill-box;
  transform-origin: right bottom;
  transform: translate(15px, 360px);
  opacity: 0;
  
  animation: 2s splash-1 0.5s ease-out infinite;
}

@keyframes splash-1 {
  
  80% {
    transform: translate(15px, 360px);
    opacity: 0;
  }
  90% {
    transform: translate(8px, 347px) rotate(0);
    opacity: 1;
  }
  100% {
    transform: translate(0px, 346px) rotate(-45deg);
    opacity: 0.5;
  }
}

#splash-2 {
  transform-box:fill-box;
  transform-origin: left bottom;
  transform: translate(26px, 360px);
  
  animation: 2s splash-2 0.5s ease-out infinite;
}

@keyframes splash-2 {
  
  80% {
    transform: translate(20px, 360px);
    
  }
  90% {
    transform: translate(27px, 350px) rotate(0);
    opacity: 1;
  }
  100% {
    transform: translate(35px, 348px) rotate(45deg);
    opacity: 0.6;
  }
}

#puddle-1 {
  transform: translateX(4px);
}
]]>
  </style>
  <g id="logotype">
    <g id="back-fill">
      <path d="M110.4 262.1c3.5-.6 10.5-1.1 10.5-1.1 1.6-2.6 11.5-36.1 11.5-36.1l-8.7 1.9c-4.6 15-15.2 11.7-15.2 11.7v1.6L94 241.6l-5.7 4.1c1 1.4 3.7 5.8 3.2 8.5l-.4 1.5 14.8-1-3 9.1s3.6-1 7.6-1.7ZM91 255.7h-.2.2Z"/> 
      <path d="M112.3 236.9c7.5-.8 10.3-10.5 10.3-14.6s-4.3-17.5-4.3-17.5l-3 .7a156.7 156.7 0 0 1-31 8.8l.5 2.2c.3 5.3 2.2 12.6 1.4 14-.8 1.5-6.2 6-4 16l.4.9 18.6-13.5s3.7 3.8 11.1 3Zm-.5-19.8s2.6 5-1.9 6c-4.4 1.1-4.7-4.4-4.7-4.4l6.6-1.6ZM89.2 179.4s10.8-2.2 10.1-10.8c-.6-8.5-1.2-13-11.4-25l-14 10.5-7.8 18-11.4-5 3 1.3c-.4 5.4 3.2 9.4 7.7 11h.2l5-2.8c2.4 3.1 2.1 4.4-.7 7.9l.2-.3c.7 2.3.2 5-1.5 7.6-3.2 4.7-7 5-3.5 9.5.7.8 1.3 1.2 2 1.5 4 0 8.5-1.1 13.2-4 0 0 9.2-4.2 8.9-19.4Zm-4.1-19.6c1.6 2.8 3.5 4.4 1.6 6-2 1.6-5.7-2.9-5.7-2.9l4-3.1Z"/>
      <path d="m58 167.1-7.1-3.2 14.5 6.6 24.1-56L79.4 103a804.4 804.4 0 0 1-25.6 15.2c1.5 1.3 4 4.7 2.8 12.6-1.6 11.1-3.5 12.4 0 16.2 3.5 3.8 4.4 11 1.9 18l-.6 2Zm1.4-33 7-4.7c3.6 1.3 5.7 1 5.7 1l-5.7 9.7-7-6ZM83.8 204.9c2.4 4.1 6.3 6.7 6.3 6.7 5.6-1 9.2-6.5 9.2-6.5l-4.7-11 4.7-3.1 11.3 12.5 11.2-10.8L108 171 90.5 183s.6 10.4-8.9 16.6c-3 2-6 3.2-8.7 3.8 1.1.2 2.1.8 3 2.4a11 11 0 0 0 1.8 2.3l-.7.4 6.8-3.5ZM107.4 264.7ZM106.3 265ZM114.7 307.6ZM104.7 288h-.1ZM104.6 288ZM121.5 290.9l-9.3-2s.4 8 2 10.5c1.5 2.4 1.3 6.4.5 8.2 1.5-.2 2.8-.9 2.8-.9l4.3-13.4c.8-2.4-.3-2.4-.3-2.4ZM106.4 264.9h-.1.1ZM108.1 287.6c-4.1-4.7-1.7-9.2-.6-12l.4-.7c.2-.4.2-.8 0-1.2-.4-2.1-2.5-2.5-1.3-4.3 1-1.5 1-3.8 1-4.7l7.7-1.4c7.6 5.9 6.2 12 6.2 12s-2.5 10.6-13.4 12.3M107.4 264.7h.2-.2ZM105.8 288ZM105.7 288Z"/>
    </g>
    <g id="outline">
      <path fill="#fff" d="M110 223.1c4.4-1 1.8-6 1.8-6l-6.6 1.6s.3 5.5 4.7 4.4Zm1-4.7c.2.6.3 1.5 0 2.2 0 .1-.3.7-1.5 1-.7.2-1.3 0-1.8-.2-.6-.5-.9-1.3-1-2l4.3-1ZM85.9 225zM54.2 118.7ZM86.7 165.8c1.9-1.6 0-3.2-1.6-6l-4.1 3.1s3.8 4.5 5.7 2.9Zm-2-4.4.3.6c1.3 2 1.2 2.1.7 2.5-.3.3-1.6-.5-2.9-1.7l1.8-1.4ZM72 130.3s-2 .4-5.6-1l-7 4.8 7 6 5.7-9.8ZM61.6 134l5-3.5c1.3.5 2.4.7 3.3.8l-3.8 6.5-4.5-3.8ZM54.5 119.1zM77.1 207.4a11.1 11.1 0 0 0 0 0ZM77.1 207.4ZM69.9 184.5c2.8-3.5 3.1-4.8.6-8l-4.9 3-5.2 3s6.6 5.5 9.5 2Zm.2-6.5c1.3 1.8 1 2.6-1.3 5.4-1.2 1.5-4.1.2-6-1L70 178ZM65 201.1l.1.2v-.2Z"/>
      <path fill="#fff" d="m121.6 262 .3-.6c1.6-2.6 12.3-38.6 12.3-38.6l-10.7 2.4c.2-1.2.4-2.2.4-3.2 0-4.2-4.2-17.3-4.4-17.9l-.4-1.2s-17.4 5.8-23.4 7.3c2.8-2 5-5.3 5-5.3l-4.6-10.6 3-1.9 11.3 12.7 13-12.5-15-23.7-11 7.4c2-2 3.4-4.6 3.2-8-.7-8.8-1.5-13.6-11.7-25.8l-.8-1-13.2 10 16-37.6-11.4-12.8s-17 10.4-26.4 15.8c-19 11-36.7 20.2-36.7 20.2l.6 1.2c6.1 10.5 18 20 18.4 20.3l.7.5.7-.3c1.8-1 8.6-7.9 11.5-10.7l5.7 5.6-5 10.5 4.2 2L35.8 179l.5 1s.8 1.6 2.3 4c2.1 2.8 5.2 7 8.4 10.5l.4.6a20 20 0 0 0 9 7l-4.2 2.3L61 221l4.6 7.2 3-.8.2 5.2.3.3c.2.3 1 1 3 1.5 1.6.3 7.4-2.7 12.5-5.6l.1.9-10 6 3.7 8.3h-7.2l1.3 13.6.1 1.9 1.7-.9c.3 0 1.6-.4 7.9-1-4.1 2.6-8.6 7-7.7 12.7.6 4 3 7.8 6.2 11l-3.9-2.8v2.5c0 .1-.4 9.7-.7 12.8 0 .6-.3 2.5 1 3.4.6.4 3.4.5 4.2.7l-5.8 6c-1 1-1.4 2-1.3 3 .1.8.7 1.3.9 1.4a148.3 148.3 0 0 1 10.9 7l-.1.2c-1.5.6-9.1.8-15.6.5H69v1.3c-.3 6-5.5 13.8-5.5 13.9l-1 1.5 1.7.5c1.7.4 12.1-1 18.2-2a11 11 0 0 0 4 9.7c3 2.8 6.7 4.3 10.7 4.3 3.8 0 8-1.4 11.8-4.2 3.4-2.4 6-6.4 7.6-12 1.2-4 1.5-7.7 1.5-8.4 0-1.7-1.8-3.6-6.5-6.6a521 521 0 0 1-18-13.1 78 78 0 0 1 17.8 7.2c.4.3.8.4 1.4.6s2.8-.1 2.8-.1c1.4-.3 3-1.1 3-1.1l4.5-14c.5-1.5.5-2.6 0-3.3-.4-.5-1-.7-1.4-.8l-9.1-2a19 19 0 0 0 10.2-12s1.5-6.7-6.2-13l5-.4Zm-70.7-98.1 4.7-10.2-7.3-7.2s-10.1 10.4-12 11.4c0 0-12-9.5-18-20 0 0 16.2-8.5 35.5-19.6a804 804 0 0 0 25.6-15.2l10.1 11.4-24 56-14.6-6.6Zm-2.4 30.6c-.3-.4-.4-.6-.5-.5-3-3.5-6.1-7.6-8.2-10.5-1.5-2.3-2.2-3.8-2.2-3.8l17-12.6 11.5 5 7.9-18 14-10.5c10 12 10.7 16.5 11.3 25 .7 8.6-10.1 10.8-10.1 10.8.3 15.2-8.9 19.3-8.9 19.3-4.7 3-9.1 4.2-13.2 4.1-2 0-4-.3-5.8-.8-7.5-.5-11.5-5.8-12.8-7.5ZM93.2 179l-2.8 1.9v-.8c1-.3 1.9-.6 2.8-1.1Zm-27 47.7-4-6.3c-2-4-8.2-15.3-8.2-15.3l4.5-2.5s6.2 2.7 14.4.6c2.7-.6 5.7-1.8 8.7-3.8 9.5-6.2 8.9-16.6 8.9-16.6L108 171l13.8 21.7-11.2 10.8L99.3 191l-4.7 3.1 4.7 11s-3.6 5.5-9.2 6.5c0 0-4-2.6-6.3-6.7l-6.8 3.5s-1.7 6.8 3.2 12.2l-14 6.2ZM79 216c-1.3-3-1-5.8-.8-7l5.2-2.7c1.8 2.8 4.1 4.7 5.3 5.6l-4.9 1-3.8.6-1.1.1v1.2l.1 1.2Zm-2.4 20.4 9.7-5.8-.5-3.7s-11.5 6.7-13.3 6.3c-1.7-.3-2.2-.9-2.2-.9l-.3-5.7 12.4-4.9s-2.1-4.3-2.1-6.7l4-.7H84c6.5-1 20-4 31.3-8.8l3-.7s4.3 13.4 4.3 17.5-2.8 13.8-10.3 14.6c-7.4.8-11-3-11-3l-18.7 13.5-1 .7-5-11.7Zm30.6 1.4v.8L94.6 240l6.5-4.7c1 .8 3 2 6 2.5Zm3.8 77.5c4.4 2.8 5.9 4.4 5.9 5.5 0 1.1-1 14-8.6 19.3-7.6 5.4-15.5 5-20.9 0-5.4-4.9-3.2-10.2-3.2-10.2s-17.7 2.6-19.4 2.2c0 0 5.3-8.1 5.7-14.6 0 0 15.6.6 16.6-1 1-1.5.1-2-1.4-3.3-1.6-1.2-9.7-5.8-9.7-5.8s-1-.7.6-2.4l6.2-6.5 8.7 2.6s15 11.3 19.5 14.2Zm10.6-24.4s1.1 0 .3 2.4l-4.3 13.4s-1.3.7-2.8.9c-.9.1-1.9.1-2.5-.4-1.8-1.3-14-7.6-33.3-11 0 0-1.7 1-1.4-2.1.3-3.2.6-12.9.6-12.9s13.6 9.9 23.7 9c10.2-1 10.4-1.4 10.4-1.4l9.3 2.1Zm-13.5-3.3c-4 .8-8.4.5-12.3 0-9.4-1.3-18.5-9.4-19.8-17.3-1.3-8 9.3-13.1 12-13.8 2.7-.6 15.7.7 15.7.7s-2 5.7-2.8 7.2c-.8 1.6-.8 2 .8 1.5l6-1.2 7.7-1.4c7.6 5.9 6.2 12 6.2 12-2.7 7.9-7.8 11.2-13.4 12.3m2.3-25.5-7.7 1.7 3.1-9.2-14.8 1c-7.8.7-16 1.5-17.2 2l-1-12.2h5.5l3 5.3 7-5 5.6-4 14.6-1.6v-1.6s10.6 3.3 15.2-11.7l8.7-2s-10 33.6-11.5 36.2c0 0-7 .5-10.5 1.1ZM106.2 270.4Z"/>
      <path fill="#fff" d="M107.9 273.7c-1-2.3-6.8-4.7-8.6-1-.4.8.7 4 3.8 4.3 2.8.2 3.4.3 4.4-1.4l.4-.7c.2-.4.2-.8 0-1.2Zm-1.6 1q-.6 1-3.1.7a3 3 0 0 1-2-1.1c-.6-.6-.7-1.2-.7-1.4.2-.5.7-1.1 2-1.1 1.6 0 3.5 1.1 4 2v.4l-.2.5ZM115 306.8ZM107.3 276.2ZM88.2 245.7l.2.2-.2-.2ZM107.6 272.9ZM114.9 307.2ZM91.4 254.2v-.1ZM107.7 273.2ZM107.6 264.9ZM114.7 307.6ZM84.6 215.3zM102.7 324.8l-4.5-2.2s-3.5 3.5-.1 5c3.3 1.6 4.6-2.8 4.6-2.8Zm-4.1 1.4c-.5-.2-.7-.4-.7-.7 0-.4.2-1 .6-1.6l2.4 1.2c-.3.5-.6 1-1 1.2-.3 0-.7.2-1.3-.1Z"/>
    </g>
    <g id="blood-fill">
      <path fill="red" d="m81.6 248.1 1-.7-.4-.8c-2.2-10.2 3.2-14.6 4-16l-9.7 5.8 5.1 11.7Zm-11.7-21.5.3 5.7s.5.6 2.2 1c1.8.3 13.3-6.4 13.3-6.4l.5 3.7c.8-1.5-1.1-8.8-1.4-14.1 0-.8-.3-1.5-.5-2.2l-4.1.7c0 2.4 2 6.7 2 6.7l-12.3 5Zm8.2 54.6s-.3 9.7-.6 12.9c-.3 3.1 1.4 2.2 1.4 2.2 19.3 3.3 31.5 9.6 33.3 11 .6.4 1.6.4 2.5.3.8-1.8 1-5.8-.5-8.2-1.6-2.5-2-10.6-2-10.6s-.2.4-10.4 1.3c-10 1-23.7-8.9-23.7-8.9Zm.2-35.8h-5.6l1.1 12.2c1.2-.5 9.4-1.3 17.2-2l.4-1.4c.5-2.7-2.2-7.1-3.2-8.5l-7 5-3-5.3Zm25.3 11.8s-13-1.3-15.7-.7c-2.7.7-13.3 5.9-12 13.8 1.3 8 10.4 16 19.8 17.3 4 .5 8.3.8 12.4 0-4.1-4.7-1.7-9.2-.6-12-1 1.7-1.6 1.6-4.4 1.4-3.1-.4-4.2-3.5-3.8-4.3 1.8-3.7 7.5-1.3 8.6 1-.4-2.1-2.5-2.5-1.3-4.3 1-1.5 1-3.8 1-4.7l-6 1.2c-1.6.4-1.6.1-.8-1.5.8-1.5 2.8-7.2 2.8-7.2Zm-23.4-36.6c-5-5.4-3.2-12.2-3.2-12.2l.7-.4a11 11 0 0 1-1.8-2.3c-.9-1.6-1.9-2.2-3-2.4-8.2 2-14.4-.6-14.4-.6l-4.5 2.5 8.2 15.3 4 6.3 14-6.2Zm-31.9-74.1 7.3 7.2L51 164l7 3.2.6-2c2.5-7 1.6-14.2-2-18-3.4-3.8-1.5-5 0-16.2 1.2-7.9-1.2-11.3-2.7-12.6C34.5 129.4 18.2 138 18.2 138c6 10.5 18.1 20 18.1 20 1.9-1 12-11.4 12-11.4ZM111 315.3A601.8 601.8 0 0 1 91.4 301l-8.7-2.6-6.2 6.5c-1.6 1.7-.6 2.4-.6 2.4s8 4.6 9.7 5.8c1.5 1.3 2.3 1.8 1.4 3.4-1 1.5-16.6.9-16.6.9a36.4 36.4 0 0 1-5.7 14.6c1.7.4 19.4-2.2 19.4-2.2s-2.2 5.3 3.2 10.2c5.4 5 13.3 5.4 20.9 0 7.6-5.3 8.6-18.2 8.6-19.3 0-1-1.5-2.7-5.9-5.5Zm-12.8 12.3c-3.4-1.5.1-5 .1-5l4.5 2.2s-1.3 4.4-4.6 2.8ZM67 202.8c-.7-.3-1.3-.7-2-1.5-3.5-4.5.3-4.8 3.5-9.5a9.3 9.3 0 0 0 1.5-7.6l-.2.3c-2.9 3.5-9.5-2-9.5-2l5.2-3-.2-.1c-4.5-1.6-8-5.6-7.7-11l-3-1.3-17.1 12.6s.7 1.5 2.2 3.8a160.4 160.4 0 0 0 8.7 11c1.3 1.7 5.3 7 12.8 7.5 1.8.5 3.8.8 5.8.8Z"/>
    </g>
    <g id="hook">
      <path class="hook-bg" fill="#fff" d="M107.6 59.8c2.3-.8 4-2.7 4-2.7s-3.4 1.7-5.3 1.7-4.1-.8-5.2-2.2c-1.1-1.4-2.6-3.2-4.3-3.6 0 0-6-2.7-7.6-2.6l-2.7.2S84.6 47.9 83 47c0 0 .2-4.6-.1-7.2-.4-2.5 0-5.2.1-5.8.2-.7.2-5.7-.6-7.6-.8-2 .1-4.6-.3-6.4 0 0 1.2-4.9.1-7 0 0 2.6-3.9-1.2-8 0 0 .7-3 .4-5H74a17 17 0 0 0 1 8.9c1.1 1.3-1.2 1.7-1.2 2.5s-.4 4.9 1.3 5.1c0 0-1.5 3 .2 5.5s.6 2.5.6 2.5-1.7.2-1.5 2.3c.2 2.2 2 4 2 4S75 33 75.2 34.8c.2 1.6 1.4 3.3 1.4 3.3s-2 .7-2 2.1 1.4 5.7 1.4 5.7l-.8 3-2 2.3-3.5-1.5c-.7-.2-4.5-7-5.3-7.1-.9-.2-3.4-6.8-4.4-6.8s-.3 1 .4 2.3c.6 1.3.8 2.8.8 2.8l-6.7-1s5.5 1.8 5.5 2.5c0 .6-1.7 1.6-3.2 1.4-.5 0-1.2 0-2 .2-1.5.2-3.3.7-4.6.7-1.9 0 4.5.4 5.5.6 1 .2 1.3.9-.8 1.5s-5 .2-5.5 1.3c-.4 1-.4 0 1.5 0s5-.9 7-1.3c1.8-.4.8.8.2 1-.7.3-6 .9-7.2 2.4-1.3 1.4-1.7 3.1-3.6 3.3-2 .3-1.3 1.3 1.9-.2 3.2-1.4 2.3-3.3 4-3.3 1.7 0 5.5-2.4 6.1-2 .7.5 1 1.1-.2 1.5-1.3.5-3.6 1.3-3.8 3-.2 1.7 0 3.4-2.1 3.6-2.1.2-.2 1.3 1 .8 1.3-.4 2-4.6 3.4-5.3 1.5-.6 3.2-2 4.7-1.6 1.5.4 2 1.6 2.7 2 .7.5 2.8 2.4 3.6 2.4.9 0 1.3 2.7 3 3.2 1.7.4.8.6.8.6s-6.1 7.4-4.8 13.5c1.2 6.1 1.6 7.6 5.5 9 0 0-1.1 7.7-4.3 11-3.1 3.4-12 11.3-11.8 24.6l9.3-5.2s-1.5-8.8 7.2-16.8c8.2-7.5 4.1-10.5 7.3-16.7 0 0 6.8-5.2 6-13-1-7.9-2.3-9-2.3-9s4.8-.6 6.5 0c1.7.7.6 2.6 2.1 3.4 1.5.9-.7 2.2-1.3 3.4-.6 1.3-1 3.7 1.1 4.3 2 .6.5 1.4-.5 2.5-.4.6-1.2 1.5-1.7 2.4.5-.5 1.5-1 2.4-1.6 1.5-1 2.6-2.5 1.7-3.6-1-1.1-4.3-2-2-4l2.2-1.9.4.8s.5 4 1.1 6.2c.7 2.2.7 3.2 1.3 3.5.6.3-1.6-5.3-.8-8.7l.3-1.4.7.3s-.8 3.3.1 4.4c1 1 1.6 3.2 2.4 3.3.8.2 2.7 1.3 2.4 2.7-.3 1.4-.7 3.3 1.9 2.2 2.5-1-1 .3-1.3-1.4-.3-1.7.6-2.5-1.4-3.8-2-1.3-3.2-2.4-3.3-4.1-.2-1.8-1.2-2.2-.5-2.6.6-.3 1.9 1.8 3.2 3.2 1.2 1.4 2.2 3.3 3.6 3 1.4-.3.5-.6-.8-1.2-1.3-.7-3.2-3.7-3.8-4.5l-1.9-2.2 1.4-.3s1.1 0 2.6 1.3c1.4 1.2 2.2 2.2 4 2.5 1.4.3 2.3-.8 3.4-1l-.8-.1c-1-.2-1.1 1-3.5 0-2.3-1.1-3.8-3.2-3.8-3.2s3.2 1.3 5.6.5Zm-27.3 9.8c-.1 2.3-2.2 4.2-3.8 3.7s-2.5-2.7-2.6-5 1.8-5.6 1.8-5.6c.5 1.4 4 .1 4 .1 1 1.2.8 3.5.6 6.8Z"/>
      <path d="M82.1 27.6s-3 3-3.6 3.8c-.5.7-.4 2.6-.4 4.2.1 1.5.6 1.3 1.2 1.2.7 0 3-2.6 3.4-3.1.3-.6.3-4.5.4-5.7.1-1.3-1-.4-1-.4ZM77.2 8.9c.2-.2 3-2.2 4.1-4.8.8-1.6.9-3.2 1-4.1h-3c-.8.7-2.4 2-3 2.8-1.1 1.2-1 2-.7 3.7.3 1.8 1.3 2.5 1.6 2.4ZM78.9 45a48 48 0 0 0 3.7-4.4l.7-4.4c.2-2.2-.9-.6-.9-.6l-3 2.2c-1.6 1.1-1 2.9-1.3 5-.4 2.2.5 2.2.8 2.3ZM81.5 26.8c.5-.7 1.2-1 1.2-2.5s-1-3-1-3-3 2.2-3.8 3.6c-.9 1.3-.2 3.6.3 5 .6 1.3 2.9-2.5 3.3-3.1ZM82.3 50.6c-.6 1.3 1 2.3 1.4 2.4.3 0 1.5-.8 2-1.3.6-.5.4-.9.1-1.2-.2-.3-.8-2.3-1.6-2-.8.4-2 2.1-2 2.1ZM79.6 60.7c-.5.3 0 1.5 1.3.2s1.2-.4 1.6-2.6c0 0 1-.6.9-1.8s-1.5-3.8-3.1-4.3c0 0-1.3 4.7-2 4.7 0 0 .3 2.2.9 2.5.5.3.8 1 .4 1.3ZM84 13.6c.1-1.4-1.6-1-1.8-1-.3 0-4.5 4.5-4.5 4.5-.6.7-.8 2.5-.3 4 .6 1.5.8 1.3 1.5 1 .6-.2 2.8-2.1 3.5-3 .7-.7.7-1.4.7-1.4s.8-2.7 1-4.1ZM82.5 42.6c.2.4-3 3.2-3.6 3.8-.8.6-.8.9-.5 1.6.2.7.8.1 1.6.2s.6.4.8 1.5c.1 1.1 1.9-1.6 2.5-2s1-1.3.8-2c-.2-.6-.8-2.5-.9-3.3 0-1-.7.2-.7.2ZM81 6.5 77.2 10s-.4 0-1 1.9c-.7 1.8.9 3.1 1.4 3.7.6.5 3.3-3.3 3.8-3.9.6-.6 2.5-1.4 2.5-1.4l-.6-3.7c-.3-1.1-2.5-.2-2.5-.2ZM96.6 53.2c.5-.8-1-1.2-2-1.3l-3.4-.7c-.3 0-1.4 1.4-1.3 2 0 .5.7.4 1.2 1s2 .1 3 .4c1 .2 2-.6 2.5-1.4Z"/>
      <path d="M85.2 57.2c-1-.5-2 .7-2.2 1.6 0 1-1.1 2.4-1.1 2.4 2.7 10.1 0 13-3.4 13.4-3.5.3-4.5-4.4-4.5-6.7s3.7-7.3 3.7-7.3c-1-1.2-1.8-3.1-1.8-3.1s-2.7 1.8-5 7.6.1 12.4 2.2 13.3c2 .9 2.6 1.9 2.6 1.9 1 3.3-3.2 9.7-4.2 11.2S65 99 62 104.5c-2.9 5.3-2.3 10.6-2.3 10.6l5.3-3.4c.1-12.8 8.5-17.5 10.6-20.3 1-1.4 3.4-5.2 3.8-7.7.8-5.7 2.3-6.2 2.3-6.2 3.2-1.3 5.7-6.8 6.2-10.4.4-3.5-1.8-9.3-2.8-9.9ZM84.2 53.6c-.7 1.2.6 2.1.6 2.1.7-1 3.5-1 3.2-1.5-.2-.4 1.6-2.6 1.6-2.6-2.4-.6-4.7.8-5.4 2ZM78.2 55.7c.3-.3 1-4.2 1.1-4.8.2-.5.4-1.4 0-1.6-1-.3-2.2 0-2.9.9-.7.9-1 1.6-1.3 2.5-.2 1 1.2 2 1.6 2.6.4.6 1.2.8 1.5.4ZM100.7 56.1a6 6 0 0 0-2.1-2c-1-.7-4.6 1.5-4.6 1.5l.3 1.6c.2.8 1.9 1.3 3.2 1.8 1.4.5 1.4.1 1.5-.4 0-.6.6 0 1.9 0s0-2-.2-2.5ZM71.3 53.8c.6.7.2.5 1 2s2.1 1.4 2.7.8c.7-.5 0-1.5-.7-2.3-.6-.8-.6-2.7-.6-2.7-1 .2-1-.2-2.1-.8-1.1-.5-.8 0-.7.7s-.1 1.7.4 2.3ZM60.2 45.5c0 .3 2 2.3 3.1 3s1.4.1 1.3-.1c0-.3 0-3.4.4-4 .3-.7-.6-1.6-.6-1.6s-.1.6-.5 1-.5-1-1-1.5c-.4-.6-2.2-1-2-.8.1.2 1 1 .8 1.7-.3.7-1.4.6-2.9.7-1.5.2-1 .4.7.8 1.6.4.7.5.7.8ZM67 51.5a14 14 0 0 1 3 2.7l-.3-2.5c0-1.2 0-1.7-.4-2.7-.3-1-.4-.5-1.1-1.6l-2.3-2.7s-.3 2.7 0 4c.4 1.3 0 2.3 1.2 2.8Z"/>
      <path fill="red" d="M96.7 113.8c-2 .9-8.6 7.4-10.6 8.6-2 1.2-8.9 7-16.7 4.6l-3.8 2.9s14.5 5.4 30.4-13.3c0 0 1.2-1.5 2-3-.4-.2-.8 0-1.3.2Z"/>
      <g class="drip">
        <path fill="red" d="M101.6 125c-.4-3.4-1.5-7-2-7.9-.3-.7-1.3-3.8-2-3.6a72.8 72.8 0 0 0-2.8 14c.2 2 .5 4.3 3.8 4.6 3.3.3 3.3-3.8 3-7.2Z"/>
        <path class="shine" fill="#fff" d="M97 129.3c1 .4 1.6-.2 1.2-1.5-.5-1.4-.2-2.5-1-2.7-.7-.2-1.3 3.7-.2 4.2Z"/>
      </g>
    </g>
  </g>
  
 
  <g id="puddle-1">
    <path fill="red" d="M27.58 359.6c-1.81-.6-4-1.17-9.67-.64-5.68.54-4.42-.46-8.94-.06-1.55.07-3.44.12-5.19.44-4.24.77-4.1 3.08-3.42 5.13.69 2.05 6.16 2.05 13.68 3.08 7.52 1.03 19.56-1.8 19.83-3.85.28-2.05-3.96-3.33-6.29-4.1Z"/>
  <path fill="#fff" d="M10.55 361.56c.69-.08.23 1.2-1.18 1.54-1.41.35-3.51.69-4.6.35-1.1-.35-1.08-.5-.69-.86 1.88-1.68 5.79-.94 6.47-1.03Z"/>
  </g>
  <g id="puddle-2">
     <path fill="red" d="M117.04 357.73c-4.13-.35-10.98 1.67-15.4.3-.4-.1-.77-.24-1.12-.45h-.01l-.04-.03c-2.59-1.54-6.07-2.11-10.33-1.72-.82.22-1.97.18-3.87-.16-4.38-.76-19.97-.76-22.16 1.03-2.19 1.8.68 1.8.41 3.08-.27 1.28-4.1 1.03-6.57 1.03s-13.26 2.05-13.4 3.59c-.14 1.54 3.97 5.13 12.45 5.38 8.48.26 35.42 1.29 38.02 1.54 2.6.26 14.77.51 17.64-1.54 2.88-2.05-.82-2.05-2.18-3.33-1.37-1.28 5.88 0 7.8-.26 1.9-.25 9.98-.25 10.8-3.33 0 0-6.02-4.62-12.04-5.13Z"/>
      <path fill="#fff" d="M58.8 362.86c-.99-.37-3.42.85-3.47 1.28-.04.43 1.37.51 2.6.51s3.38.09 3.42-.94c.05-1.02-2.32-.77-2.55-.85Z"/>
  </g>

  <path id="splash-2" fill="red" d="M1.2 5s1-2.4 2.8-2.2 4.7 2.2 5.2.5c.5-1.8-1-3.6-4.6-3.3C.9.4 0 4 0 4.8c0 .7.8 1 1.2.2Z" />
  <g id="splash-1">
    <path fill="red" d="M9.2 6.37s-.74-2.78-2.94-2.88c-2.2-.1-6 1.51-6.24-.52C-.23.94 1.89-.7 6.19.31a5.73 5.73 0 0 1 4.45 6.06c-.18.78-1.1.89-1.45 0Z"/>
    <path fill="#fff" d="M2.22 2.26c-.45 0-1.46 0-1-.77C1.68.72 1.9.72 2.4.72c.5 0 1 .85.73 1.1-.27.26-.9.44-.9.44Z"/>
  </g>

  <g id="drip-1" class="drip">
   <path fill="red" d="M21 137.8s1.5 6.8 2.7 8c1 1.4 3.6 16 0 16.6-3.7.4-5.7-5.6-4.2-9.2 1.6-3.7 1.3-7.5 1.5-15.4Z"/>
    <path class="shine" fill="#fff" d="M21.5 153.3s.7 2 .2 3.2c-.5 1.2-.8 1-1.3.2-.4-.7 0-1.6 0-2.5.3-.8 1-1.4 1.1-1Z"/>
  </g>
  <g id="drip-2" class="drip">
    <path fill="red" d="M110.4 358a4 4 0 0 0 0 0ZM48 194c-3-3.5-2.8-14.7-2.3-14 .3 1.4-4 9.1-4.8 11.3-1.3 3.5-.5 9 3.3 9.2 3.8.1 4.1-4.8 3.8-6.4v-.1Z"/>
    <path fill="#fff" d="M41.7 193.5c.4 0 1.4.5 1.5 1.9 0 1.4-2 1-2-.2s.5-1.7.5-1.7Z"/>
  </g>
  <g id="drip-3" class="drip">
    <path fill="red" d="M62.3 231.5c-1.3 7.2 3.1 5.7 3.1 5.7 5.2 0 3.5-10 3.2-11.5L66 217s-2.5 7.5-3.7 14.6Z"/>
    <path fill="#fff" d="M63.1 232c.3 0 1.3.5 1.6 1.9.2 1.4-1.6 1.3-1.8 0s.2-1.9.2-1.9Z"/>
  </g>

</svg>
