<svg xmlns="http://www.w3.org/2000/svg" width="46" height="43" viewBox="0 0 46 43">
  <g id="Group_1" data-name="Group 1" transform="translate(-848 -221)">
    <path id="Union_1" data-name="Union 1" d="M97,464a8,8,0,0,1-8-8v-1a18.041,18.041,0,0,1-8-15v-1a18,18,0,0,1,18-18h10a18,18,0,0,1,18,18v1a18.041,18.041,0,0,1-8,15v1a8,8,0,0,1-8,8Zm14-10v6a4,4,0,0,0,4-4v-3l2-1a14.421,14.421,0,0,0,6-12v-1a13.671,13.671,0,0,0-14-14H99a13.671,13.671,0,0,0-14,14v1a14.422,14.422,0,0,0,6,12l2,1v3a4,4,0,0,0,4,4h2v-6a2,2,0,0,1,4,0v6h4v-6a2,2,0,0,1,4,0Zm-3-11a4,4,0,1,1,4,4A4,4,0,0,1,108,443Zm-15,0a4,4,0,1,1,4,4A4,4,0,0,1,93,443Z" transform="translate(767 -200)"/>
  </g>
</svg>
